{
    "asset" : {
        "generator" : "Khronos glTF Blender I/O v3.3.27",
        "version" : "2.0"
    },
    "extensionsUsed" : [
        "KHR_materials_specular",
        "KHR_materials_ior"
    ],
    "scene" : 0,
    "scenes" : [
        {
            "name" : "Scene",
            "nodes" : [
                0
            ]
        }
    ],
    "nodes" : [
        {
            "mesh" : 0,
            "name" : "Car1_For_Blender",
            "rotation" : [
                -0.9128638505935669,
                0.372880220413208,
                -0.14868539571762085,
                0.0743815079331398
            ],
            "translation" : [
                9.051640510559082,
                6.962898254394531,
                4.462978363037109
            ]
        }
    ],
    "materials" : [
        {
            "doubleSided" : true,
            "extensions" : {
                "KHR_materials_specular" : {
                    "specularColorFactor" : [
                        2.371357614441398,
                        2.371357614441398,
                        2.371357614441398
                    ]
                },
                "KHR_materials_ior" : {
                    "ior" : 1.4500000476837158
                }
            },
            "name" : "material_0",
            "pbrMetallicRoughness" : {
                "metallicFactor" : 0
            }
        }
    ],
    "meshes" : [
        {
            "name" : "Car1_For_Blender",
            "primitives" : [
                {
                    "attributes" : {
                        "POSITION" : 0,
                        "NORMAL" : 1,
                        "TEXCOORD_0" : 2
                    },
                    "indices" : 3,
                    "material" : 0
                }
            ]
        }
    ],
    "accessors" : [
        {
            "bufferView" : 0,
            "componentType" : 5126,
            "count" : 534653,
            "max" : [
                2.4887290000915527,
                16.73586654663086,
                4.943167209625244
            ],
            "min" : [
                -7.722136974334717,
                7.9380388259887695,
                -5.083788871765137
            ],
            "type" : "VEC3"
        },
        {
            "bufferView" : 1,
            "componentType" : 5126,
            "count" : 534653,
            "type" : "VEC3"
        },
        {
            "bufferView" : 2,
            "componentType" : 5126,
            "count" : 534653,
            "type" : "VEC2"
        },
        {
            "bufferView" : 3,
            "componentType" : 5125,
            "count" : 534654,
            "type" : "SCALAR"
        }
    ],
    "bufferViews" : [
        {
            "buffer" : 0,
            "byteLength" : 6415836,
            "byteOffset" : 0,
            "target" : 34962
        },
        {
            "buffer" : 0,
            "byteLength" : 6415836,
            "byteOffset" : 6415836,
            "target" : 34962
        },
        {
            "buffer" : 0,
            "byteLength" : 4277224,
            "byteOffset" : 12831672,
            "target" : 34962
        },
        {
            "buffer" : 0,
            "byteLength" : 2138616,
            "byteOffset" : 17108896,
            "target" : 34963
        }
    ],
    "buffers" : [
        {
            "byteLength" : 19247512,
            "uri" : "Final.bin"
        }
    ]
}
